<svg xmlns="http://www.w3.org/2000/svg" version="1.1" xmlns:xlink="http://www.w3.org/1999/xlink" xmlns:svgjs="http://svgjs.dev/svgjs" width="1500" height="238" viewBox="0 0 1500 238"><g transform="matrix(1,0,0,1,-0.9090909090909918,-0.7351852445870435)"><svg viewBox="0 0 396 63" data-background-color="#132968" preserveAspectRatio="xMidYMid meet" height="238" width="1500" xmlns="http://www.w3.org/2000/svg" xmlns:xlink="http://www.w3.org/1999/xlink"><g id="tight-bounds" transform="matrix(1,0,0,1,0.2400000000000091,0.19460785886127496)"><svg viewBox="0 0 395.52 62.610784282277464" height="62.610784282277464" width="395.52"><g><svg viewBox="0 0 395.52 62.610784282277464" height="62.610784282277464" width="395.52"><g><svg viewBox="0 0 395.52 62.610784282277464" height="62.610784282277464" width="395.52"><g id="textblocktransform"><svg viewBox="0 0 395.52 62.610784282277464" height="62.610784282277464" width="395.52" id="textblock"><g><svg viewBox="0 0 395.52 62.610784282277464" height="62.610784282277464" width="395.52"><g transform="matrix(1,0,0,1,0,0)"><svg width="395.52" viewBox="3.55 -36.75 311.71999999999997 49.349999999999994" height="62.610784282277464" data-palette-color="#f1f2f6"><path d="M3.55 0L3.55-22.95 8.95-22.95 8.95-18.8Q10.05-21.15 12.18-22.35 14.3-23.55 17.05-23.55L17.05-23.55Q23.2-23.5 24.6-19.3L24.6-19.3Q25.7-21.25 27.9-22.4 30.1-23.55 32.55-23.55L32.55-23.55Q36.15-23.55 38-22.18 39.85-20.8 40.48-18.28 41.1-15.75 41.1-11.5L41.1-11.5 41.1 0 35.65 0 35.65-11.55Q35.65-15.6 34.83-17.35 34-19.1 31.65-19.1L31.65-19.1Q28.5-19.1 26.88-16.98 25.25-14.85 25.25-11.4L25.25-11.4 25.25 0 19.85 0 19.85-12.35Q19.85-15 19.65-16.3 19.45-17.6 18.55-18.35 17.65-19.1 15.65-19.1L15.65-19.1Q13.9-19.1 12.38-18.05 10.85-17 9.93-15.23 9-13.45 9-11.4L9-11.4 9 0 3.55 0ZM49.65 12.6L54.6 0.7 45.1-22.95 51.2-22.95 56.1-8.35 57.2-4.8 58.3-8.35 63.45-22.95 69.35-22.95 55.25 12.6 49.65 12.6ZM95.24 0.5Q92.14 0.5 89.52-0.98 86.89-2.45 85.32-5.18 83.74-7.9 83.74-11.55L83.74-11.55Q83.74-17 86.79-20.28 89.84-23.55 95.04-23.55L95.04-23.55Q97.94-23.55 100.34-22.13 102.74-20.7 103.59-18.7L103.59-18.7 103.34-22.6 103.34-36.75 108.64-36.75 108.64 0 103.49 0 103.39-4.05Q102.54-2.25 100.29-0.88 98.04 0.5 95.24 0.5L95.24 0.5ZM96.14-4.05Q98.99-4.05 100.94-6.03 102.89-8 102.89-11.2L102.89-11.2 102.89-11.55Q102.89-13.7 101.99-15.4 101.09-17.1 99.54-18.05 97.99-19 96.14-19L96.14-19Q92.94-19 91.19-16.93 89.44-14.85 89.44-11.55L89.44-11.55Q89.44-8.2 91.17-6.13 92.89-4.05 96.14-4.05L96.14-4.05ZM115.64 0L115.64-22.95 121.04-22.95 121.04-18.45Q121.84-20.75 123.64-22.15 125.44-23.55 127.74-23.55L127.74-23.55Q129.34-23.55 129.94-23.25L129.94-23.25 129.19-17.8Q128.74-18.1 127.24-18.1L127.24-18.1Q124.89-18.1 122.97-16.6 121.04-15.1 121.04-11.8L121.04-11.8 121.04 0 115.64 0ZM144.59 0.5Q140.49 0.5 137.74-1.13 134.99-2.75 133.69-5.48 132.39-8.2 132.39-11.45L132.39-11.45Q132.39-15.1 133.91-17.85 135.44-20.6 138.14-22.08 140.84-23.55 144.24-23.55L144.24-23.55Q149.54-23.55 152.11-20.63 154.69-17.7 154.69-12.4L154.69-12.4Q154.69-11.05 154.54-9.6L154.54-9.6 138.04-9.6Q138.59-6.55 140.21-5.2 141.84-3.85 144.74-3.85L144.74-3.85Q147.14-3.85 148.69-4.25 150.24-4.65 151.54-5.35L151.54-5.35 153.19-1.5Q151.94-0.7 149.79-0.1 147.64 0.5 144.59 0.5L144.59 0.5ZM138.04-13.35L149.44-13.35Q149.49-16.45 148.09-17.73 146.69-19 144.09-19L144.09-19Q138.84-19 138.04-13.35L138.04-13.35ZM170.49 0.5Q167.39 0.5 164.76-0.98 162.14-2.45 160.56-5.18 158.99-7.9 158.99-11.55L158.99-11.55Q158.99-15.15 160.36-17.85 161.74-20.55 164.29-22.05 166.84-23.55 170.29-23.55L170.29-23.55Q172.29-23.55 174.04-22.85 175.79-22.15 176.99-21.13 178.19-20.1 178.59-19.1L178.59-19.1 178.69-22.95 183.84-22.95 183.84 0 178.74 0 178.64-4.05Q177.79-2.25 175.54-0.88 173.29 0.5 170.49 0.5L170.49 0.5ZM171.39-4Q174.24-4 176.19-5.98 178.14-7.95 178.14-11.15L178.14-11.15 178.14-11.5Q178.14-13.65 177.24-15.35 176.34-17.05 174.79-18 173.24-18.95 171.39-18.95L171.39-18.95Q168.19-18.95 166.44-16.88 164.69-14.8 164.69-11.5L164.69-11.5Q164.69-8.15 166.41-6.08 168.14-4 171.39-4L171.39-4ZM191.08 0L191.08-22.95 196.48-22.95 196.48-18.8Q197.58-21.15 199.71-22.35 201.83-23.55 204.58-23.55L204.58-23.55Q210.73-23.5 212.13-19.3L212.13-19.3Q213.23-21.25 215.43-22.4 217.63-23.55 220.08-23.55L220.08-23.55Q223.68-23.55 225.53-22.18 227.38-20.8 228.01-18.28 228.63-15.75 228.63-11.5L228.63-11.5 228.63 0 223.18 0 223.18-11.55Q223.18-15.6 222.36-17.35 221.53-19.1 219.18-19.1L219.18-19.1Q216.03-19.1 214.41-16.98 212.78-14.85 212.78-11.4L212.78-11.4 212.78 0 207.38 0 207.38-12.35Q207.38-15 207.18-16.3 206.98-17.6 206.08-18.35 205.18-19.1 203.18-19.1L203.18-19.1Q201.43-19.1 199.91-18.05 198.38-17 197.46-15.23 196.53-13.45 196.53-11.4L196.53-11.4 196.53 0 191.08 0ZM245.63 12.2Q243.78 12.2 241.63 11.65L241.63 11.65 242.78 6.8Q243.58 7.1 244.33 7.33 245.08 7.55 245.73 7.55L245.73 7.55Q247.38 7.55 248.1 6.65 248.83 5.75 248.83 3L248.83 3 248.83-22.95 254.23-22.95 254.23 3.25Q254.23 7.6 251.98 9.9 249.73 12.2 245.63 12.2L245.63 12.2ZM251.23-27.25Q249.68-27.25 248.63-28.3 247.58-29.35 247.58-30.9L247.58-30.9Q247.58-32.3 248.63-33.3 249.68-34.3 251.23-34.3L251.23-34.3Q252.73-34.3 253.78-33.3 254.83-32.3 254.83-30.9L254.83-30.9Q254.83-29.35 253.8-28.3 252.78-27.25 251.23-27.25L251.23-27.25ZM272.43 0.5Q268.88 0.5 266.13-1.1 263.38-2.7 261.88-5.45 260.38-8.2 260.38-11.55L260.38-11.55Q260.38-14.85 261.85-17.6 263.32-20.35 266.07-21.95 268.82-23.55 272.43-23.55L272.43-23.55Q276.03-23.55 278.75-21.95 281.48-20.35 282.95-17.6 284.43-14.85 284.43-11.55L284.43-11.55Q284.43-8.2 282.93-5.45 281.43-2.7 278.7-1.1 275.98 0.5 272.43 0.5L272.43 0.5ZM272.57-3.9Q275.48-3.9 277.15-6.05 278.82-8.2 278.82-11.45L278.82-11.45Q278.82-14.7 277.03-16.93 275.23-19.15 272.28-19.15L272.28-19.15Q269.43-19.15 267.7-16.95 265.98-14.75 265.98-11.45L265.98-11.45Q265.98-8.25 267.82-6.08 269.68-3.9 272.57-3.9L272.57-3.9ZM303.77 0.5Q300.97 0.5 298.75-0.88 296.52-2.25 295.67-4.05L295.67-4.05 295.57 0 290.37 0 290.37-36.75 295.67-36.75 295.67-22.6 295.42-18.7Q296.27-20.7 298.75-22.13 301.22-23.55 304.12-23.55L304.12-23.55Q307.52-23.55 310.05-22.03 312.57-20.5 313.92-17.78 315.27-15.05 315.27-11.45L315.27-11.45Q315.27-7.8 313.7-5.1 312.12-2.4 309.5-0.95 306.87 0.5 303.77 0.5L303.77 0.5ZM302.87-4Q306.12-4 307.87-6.08 309.62-8.15 309.62-11.45L309.62-11.45Q309.62-14.8 307.9-16.88 306.17-18.95 302.87-18.95L302.87-18.95Q300.02-18.95 298.07-16.98 296.12-15 296.12-11.8L296.12-11.8 296.12-11.45Q296.12-9.3 297.05-7.6 297.97-5.9 299.5-4.95 301.02-4 302.87-4L302.87-4Z" opacity="1" transform="matrix(1,0,0,1,0,0)" fill="#132968" class="wordmark-text-0" data-fill-palette-color="primary" id="text-0"></path></svg></g></svg></g></svg></g></svg></g></svg></g><defs></defs></svg><rect width="395.52" height="62.610784282277464" fill="none" stroke="none" visibility="hidden"></rect></g></svg></g></svg>